<mxfile host="app.diagrams.net" modified="2023-05-13T20:09:11.916Z" agent="Mozilla/5.0 (Windows NT 10.0; Win64; x64) AppleWebKit/537.36 (KHTML, like Gecko) Chrome/113.0.0.0 Safari/537.36" etag="b5UxUu9a3FtLGcvMO-_8" version="21.2.9" type="github">
  <diagram name="Page-1" id="4fc8d65c-f3f6-feb3-4d1c-02f59d9f9886">
    <mxGraphModel dx="2260" dy="1965" grid="1" gridSize="10" guides="1" tooltips="1" connect="1" arrows="1" fold="1" page="1" pageScale="1" pageWidth="826" pageHeight="1169" background="none" math="0" shadow="0">
      <root>
        <mxCell id="0" />
        <mxCell id="1" parent="0" />
        <mxCell id="pAVdd1VswmtV60KGcweD-265" value="" style="shape=ext;double=1;rounded=0;whiteSpace=wrap;html=1;" vertex="1" parent="1">
          <mxGeometry x="-350" y="-490" width="1160" height="630" as="geometry" />
        </mxCell>
        <mxCell id="pAVdd1VswmtV60KGcweD-269" style="edgeStyle=orthogonalEdgeStyle;rounded=0;orthogonalLoop=1;jettySize=auto;html=1;exitX=1;exitY=0.5;exitDx=0;exitDy=0;entryX=0;entryY=0.5;entryDx=0;entryDy=0;endArrow=none;endFill=0;strokeWidth=3;" edge="1" parent="1" source="pAVdd1VswmtV60KGcweD-264" target="pAVdd1VswmtV60KGcweD-267">
          <mxGeometry relative="1" as="geometry" />
        </mxCell>
        <mxCell id="pAVdd1VswmtV60KGcweD-281" style="edgeStyle=orthogonalEdgeStyle;rounded=0;orthogonalLoop=1;jettySize=auto;html=1;exitX=0.25;exitY=0;exitDx=0;exitDy=0;entryX=0.5;entryY=1;entryDx=0;entryDy=0;endArrow=none;endFill=0;strokeWidth=3;" edge="1" parent="1" source="pAVdd1VswmtV60KGcweD-264" target="pAVdd1VswmtV60KGcweD-276">
          <mxGeometry relative="1" as="geometry" />
        </mxCell>
        <mxCell id="pAVdd1VswmtV60KGcweD-282" style="edgeStyle=orthogonalEdgeStyle;rounded=0;orthogonalLoop=1;jettySize=auto;html=1;exitX=0.5;exitY=0;exitDx=0;exitDy=0;entryX=0.5;entryY=1;entryDx=0;entryDy=0;endArrow=none;endFill=0;strokeWidth=3;" edge="1" parent="1" source="pAVdd1VswmtV60KGcweD-264" target="pAVdd1VswmtV60KGcweD-277">
          <mxGeometry relative="1" as="geometry" />
        </mxCell>
        <mxCell id="pAVdd1VswmtV60KGcweD-264" value="&lt;font style=&quot;font-size: 17px;&quot;&gt;&lt;b style=&quot;&quot;&gt;Оператор по переводу денежных средств&lt;/b&gt;&lt;/font&gt;" style="rounded=1;whiteSpace=wrap;html=1;strokeWidth=2;fillWeight=4;hachureGap=8;hachureAngle=45;fillColor=#1EB6FF;sketch=1;" vertex="1" parent="1">
          <mxGeometry x="-170" y="-210" width="170" height="70" as="geometry" />
        </mxCell>
        <mxCell id="pAVdd1VswmtV60KGcweD-266" value="Законодательство РФ" style="text;strokeColor=none;fillColor=none;html=1;fontSize=24;fontStyle=1;verticalAlign=middle;align=center;" vertex="1" parent="1">
          <mxGeometry x="610" y="100" width="100" height="40" as="geometry" />
        </mxCell>
        <mxCell id="pAVdd1VswmtV60KGcweD-283" style="edgeStyle=orthogonalEdgeStyle;rounded=0;orthogonalLoop=1;jettySize=auto;html=1;exitX=0.5;exitY=0;exitDx=0;exitDy=0;entryX=0.5;entryY=1;entryDx=0;entryDy=0;endArrow=none;endFill=0;strokeWidth=3;" edge="1" parent="1" source="pAVdd1VswmtV60KGcweD-291" target="pAVdd1VswmtV60KGcweD-278">
          <mxGeometry relative="1" as="geometry" />
        </mxCell>
        <mxCell id="pAVdd1VswmtV60KGcweD-267" value="&lt;b style=&quot;border-color: var(--border-color); font-size: 17px;&quot;&gt;Оператор по переводу денежных средств&lt;/b&gt;" style="rounded=1;whiteSpace=wrap;html=1;strokeWidth=2;fillWeight=4;hachureGap=8;hachureAngle=45;fillColor=#1EB6FF;sketch=1;" vertex="1" parent="1">
          <mxGeometry x="110" y="-210" width="170" height="70" as="geometry" />
        </mxCell>
        <mxCell id="pAVdd1VswmtV60KGcweD-284" style="edgeStyle=orthogonalEdgeStyle;rounded=0;orthogonalLoop=1;jettySize=auto;html=1;exitX=0.5;exitY=0;exitDx=0;exitDy=0;entryX=0.5;entryY=1;entryDx=0;entryDy=0;endArrow=none;endFill=0;strokeWidth=3;" edge="1" parent="1" source="pAVdd1VswmtV60KGcweD-268" target="pAVdd1VswmtV60KGcweD-279">
          <mxGeometry relative="1" as="geometry" />
        </mxCell>
        <mxCell id="pAVdd1VswmtV60KGcweD-268" value="&lt;b style=&quot;border-color: var(--border-color); font-size: 17px;&quot;&gt;Оператор по переводу денежных средств&lt;/b&gt;" style="rounded=1;whiteSpace=wrap;html=1;strokeWidth=2;fillWeight=4;hachureGap=8;hachureAngle=45;fillColor=#1EB4FC;sketch=1;" vertex="1" parent="1">
          <mxGeometry x="480" y="-210" width="170" height="70" as="geometry" />
        </mxCell>
        <mxCell id="pAVdd1VswmtV60KGcweD-271" value="" style="line;strokeWidth=2;html=1;" vertex="1" parent="1">
          <mxGeometry x="280" y="-180" width="60" height="10" as="geometry" />
        </mxCell>
        <mxCell id="pAVdd1VswmtV60KGcweD-272" value="..." style="text;strokeColor=none;fillColor=none;html=1;fontSize=24;fontStyle=1;verticalAlign=middle;align=center;" vertex="1" parent="1">
          <mxGeometry x="330" y="-195" width="100" height="40" as="geometry" />
        </mxCell>
        <mxCell id="pAVdd1VswmtV60KGcweD-273" value="" style="line;strokeWidth=2;html=1;" vertex="1" parent="1">
          <mxGeometry x="420" y="-180" width="60" height="10" as="geometry" />
        </mxCell>
        <mxCell id="pAVdd1VswmtV60KGcweD-274" value="&lt;font style=&quot;font-size: 14px;&quot;&gt;Договор&lt;/font&gt;" style="text;strokeColor=none;fillColor=none;html=1;fontSize=24;fontStyle=1;verticalAlign=middle;align=center;rotation=0;" vertex="1" parent="1">
          <mxGeometry y="-210" width="110" height="40" as="geometry" />
        </mxCell>
        <mxCell id="pAVdd1VswmtV60KGcweD-275" value="&lt;font style=&quot;font-size: 14px;&quot;&gt;Договор&lt;/font&gt;" style="text;strokeColor=none;fillColor=none;html=1;fontSize=24;fontStyle=1;verticalAlign=middle;align=center;rotation=0;" vertex="1" parent="1">
          <mxGeometry x="325" y="-210" width="110" height="40" as="geometry" />
        </mxCell>
        <mxCell id="pAVdd1VswmtV60KGcweD-276" value="&lt;font size=&quot;1&quot; style=&quot;&quot;&gt;&lt;b style=&quot;font-size: 20px;&quot;&gt;Клиент&lt;/b&gt;&lt;/font&gt;" style="ellipse;whiteSpace=wrap;html=1;strokeWidth=2;fillWeight=2;hachureGap=8;fillColor=#FF8C8C;fillStyle=dots;sketch=1;gradientColor=none;" vertex="1" parent="1">
          <mxGeometry x="-260" y="-400" width="120" height="60" as="geometry" />
        </mxCell>
        <mxCell id="pAVdd1VswmtV60KGcweD-277" value="&lt;font size=&quot;1&quot; style=&quot;&quot;&gt;&lt;b style=&quot;font-size: 20px;&quot;&gt;Клиент&lt;/b&gt;&lt;/font&gt;" style="ellipse;whiteSpace=wrap;html=1;strokeWidth=2;fillWeight=2;hachureGap=8;fillColor=#FF8C8C;fillStyle=dots;sketch=1;" vertex="1" parent="1">
          <mxGeometry x="-70" y="-400" width="120" height="60" as="geometry" />
        </mxCell>
        <mxCell id="pAVdd1VswmtV60KGcweD-278" value="&lt;font size=&quot;1&quot; style=&quot;&quot;&gt;&lt;b style=&quot;font-size: 20px;&quot;&gt;Клиент&lt;/b&gt;&lt;/font&gt;" style="ellipse;whiteSpace=wrap;html=1;strokeWidth=2;fillWeight=2;hachureGap=8;fillColor=#FF8C8C;fillStyle=dots;sketch=1;" vertex="1" parent="1">
          <mxGeometry x="135" y="-400" width="120" height="60" as="geometry" />
        </mxCell>
        <mxCell id="pAVdd1VswmtV60KGcweD-279" value="&lt;font size=&quot;1&quot; style=&quot;&quot;&gt;&lt;b style=&quot;font-size: 20px;&quot;&gt;Клиент&lt;/b&gt;&lt;/font&gt;" style="ellipse;whiteSpace=wrap;html=1;strokeWidth=2;fillWeight=2;hachureGap=8;fillColor=#FF8C8C;fillStyle=dots;sketch=1;" vertex="1" parent="1">
          <mxGeometry x="353" y="-400" width="120" height="60" as="geometry" />
        </mxCell>
        <mxCell id="pAVdd1VswmtV60KGcweD-301" style="edgeStyle=orthogonalEdgeStyle;rounded=0;orthogonalLoop=1;jettySize=auto;html=1;exitX=0.5;exitY=1;exitDx=0;exitDy=0;endArrow=none;endFill=0;strokeWidth=3;" edge="1" parent="1" source="pAVdd1VswmtV60KGcweD-280" target="pAVdd1VswmtV60KGcweD-299">
          <mxGeometry relative="1" as="geometry" />
        </mxCell>
        <mxCell id="pAVdd1VswmtV60KGcweD-280" value="&lt;font size=&quot;1&quot; style=&quot;&quot;&gt;&lt;b style=&quot;font-size: 20px;&quot;&gt;Клиент&lt;/b&gt;&lt;/font&gt;" style="ellipse;whiteSpace=wrap;html=1;strokeWidth=2;fillWeight=2;hachureGap=8;fillColor=#FF8C8C;fillStyle=dots;sketch=1;" vertex="1" parent="1">
          <mxGeometry x="580" y="-400" width="120" height="60" as="geometry" />
        </mxCell>
        <mxCell id="pAVdd1VswmtV60KGcweD-303" style="edgeStyle=orthogonalEdgeStyle;rounded=0;orthogonalLoop=1;jettySize=auto;html=1;exitX=0.5;exitY=0;exitDx=0;exitDy=0;entryX=0.25;entryY=1;entryDx=0;entryDy=0;endArrow=none;endFill=0;strokeWidth=3;" edge="1" parent="1" source="pAVdd1VswmtV60KGcweD-286" target="pAVdd1VswmtV60KGcweD-264">
          <mxGeometry relative="1" as="geometry" />
        </mxCell>
        <mxCell id="pAVdd1VswmtV60KGcweD-286" value="&lt;font style=&quot;font-size: 18px;&quot;&gt;&lt;b&gt;Платежный&lt;br&gt;агент&lt;/b&gt;&lt;/font&gt;" style="rhombus;whiteSpace=wrap;html=1;strokeWidth=2;fillWeight=-1;hachureGap=8;fillStyle=cross-hatch;fillColor=#00F200;sketch=1;" vertex="1" parent="1">
          <mxGeometry x="-320" y="-20" width="200" height="80" as="geometry" />
        </mxCell>
        <mxCell id="pAVdd1VswmtV60KGcweD-288" value="&lt;font style=&quot;font-size: 14px;&quot;&gt;Договор&lt;/font&gt;" style="text;strokeColor=none;fillColor=none;html=1;fontSize=24;fontStyle=1;verticalAlign=middle;align=center;rotation=0;" vertex="1" parent="1">
          <mxGeometry x="-220" y="-310" width="110" height="40" as="geometry" />
        </mxCell>
        <mxCell id="pAVdd1VswmtV60KGcweD-289" value="&lt;font style=&quot;font-size: 14px;&quot;&gt;Договор&lt;/font&gt;" style="text;strokeColor=none;fillColor=none;html=1;fontSize=24;fontStyle=1;verticalAlign=middle;align=center;rotation=0;" vertex="1" parent="1">
          <mxGeometry x="-100" y="-310" width="110" height="40" as="geometry" />
        </mxCell>
        <mxCell id="pAVdd1VswmtV60KGcweD-293" value="" style="edgeStyle=orthogonalEdgeStyle;rounded=0;orthogonalLoop=1;jettySize=auto;html=1;exitX=0.5;exitY=0;exitDx=0;exitDy=0;entryX=0.5;entryY=1;entryDx=0;entryDy=0;endArrow=none;endFill=0;strokeWidth=3;" edge="1" parent="1" source="pAVdd1VswmtV60KGcweD-267" target="pAVdd1VswmtV60KGcweD-291">
          <mxGeometry relative="1" as="geometry">
            <mxPoint x="195" y="-210" as="sourcePoint" />
            <mxPoint x="195" y="-340" as="targetPoint" />
          </mxGeometry>
        </mxCell>
        <mxCell id="pAVdd1VswmtV60KGcweD-291" value="&lt;font style=&quot;font-size: 14px;&quot;&gt;Договор&lt;/font&gt;" style="text;strokeColor=none;fillColor=none;html=1;fontSize=24;fontStyle=1;verticalAlign=middle;align=center;rotation=0;" vertex="1" parent="1">
          <mxGeometry x="140" y="-300" width="110" height="40" as="geometry" />
        </mxCell>
        <mxCell id="pAVdd1VswmtV60KGcweD-298" value="&lt;font style=&quot;font-size: 14px;&quot;&gt;Договор&lt;/font&gt;" style="text;strokeColor=none;fillColor=none;html=1;fontSize=24;fontStyle=1;verticalAlign=middle;align=center;rotation=0;" vertex="1" parent="1">
          <mxGeometry x="400" y="-310" width="110" height="40" as="geometry" />
        </mxCell>
        <mxCell id="pAVdd1VswmtV60KGcweD-300" value="" style="edgeStyle=orthogonalEdgeStyle;rounded=0;orthogonalLoop=1;jettySize=auto;html=1;exitX=0.75;exitY=0;exitDx=0;exitDy=0;entryX=0.5;entryY=1;entryDx=0;entryDy=0;endArrow=none;endFill=0;strokeWidth=3;" edge="1" parent="1" source="pAVdd1VswmtV60KGcweD-268" target="pAVdd1VswmtV60KGcweD-299">
          <mxGeometry relative="1" as="geometry">
            <mxPoint x="608" y="-210" as="sourcePoint" />
            <mxPoint x="640" y="-340" as="targetPoint" />
          </mxGeometry>
        </mxCell>
        <mxCell id="pAVdd1VswmtV60KGcweD-299" value="&lt;font style=&quot;font-size: 14px;&quot;&gt;Договор&lt;/font&gt;" style="text;strokeColor=none;fillColor=none;html=1;fontSize=24;fontStyle=1;verticalAlign=middle;align=center;rotation=0;" vertex="1" parent="1">
          <mxGeometry x="580" y="-290" width="110" height="40" as="geometry" />
        </mxCell>
        <mxCell id="pAVdd1VswmtV60KGcweD-307" style="edgeStyle=orthogonalEdgeStyle;rounded=0;orthogonalLoop=1;jettySize=auto;html=1;exitX=0;exitY=0.5;exitDx=0;exitDy=0;entryX=1;entryY=0.5;entryDx=0;entryDy=0;endArrow=none;endFill=0;strokeWidth=3;" edge="1" parent="1" source="pAVdd1VswmtV60KGcweD-302" target="pAVdd1VswmtV60KGcweD-286">
          <mxGeometry relative="1" as="geometry" />
        </mxCell>
        <mxCell id="pAVdd1VswmtV60KGcweD-302" value="&lt;font style=&quot;font-size: 18px;&quot;&gt;&lt;b&gt;Платежный&lt;br&gt;субагент&lt;/b&gt;&lt;/font&gt;" style="rhombus;whiteSpace=wrap;html=1;strokeWidth=2;fillWeight=-1;hachureGap=8;fillStyle=cross-hatch;fillColor=#DAF202;sketch=1;" vertex="1" parent="1">
          <mxGeometry x="-20" y="-20" width="200" height="80" as="geometry" />
        </mxCell>
        <mxCell id="pAVdd1VswmtV60KGcweD-306" style="edgeStyle=orthogonalEdgeStyle;rounded=0;orthogonalLoop=1;jettySize=auto;html=1;exitX=0.5;exitY=0;exitDx=0;exitDy=0;entryX=0.75;entryY=1;entryDx=0;entryDy=0;endArrow=none;endFill=0;strokeWidth=3;" edge="1" parent="1" source="pAVdd1VswmtV60KGcweD-305" target="pAVdd1VswmtV60KGcweD-267">
          <mxGeometry relative="1" as="geometry" />
        </mxCell>
        <mxCell id="pAVdd1VswmtV60KGcweD-305" value="&lt;font style=&quot;font-size: 18px;&quot;&gt;&lt;b&gt;Платежный&lt;br&gt;агент&lt;/b&gt;&lt;/font&gt;" style="rhombus;whiteSpace=wrap;html=1;strokeWidth=2;fillWeight=-1;hachureGap=8;fillStyle=cross-hatch;fillColor=#00F200;sketch=1;" vertex="1" parent="1">
          <mxGeometry x="220" y="-20" width="200" height="80" as="geometry" />
        </mxCell>
        <mxCell id="pAVdd1VswmtV60KGcweD-309" value="&lt;font style=&quot;font-size: 14px;&quot;&gt;Договор&lt;/font&gt;" style="text;strokeColor=none;fillColor=none;html=1;fontSize=24;fontStyle=1;verticalAlign=middle;align=center;rotation=0;" vertex="1" parent="1">
          <mxGeometry x="-240" y="-120" width="110" height="40" as="geometry" />
        </mxCell>
        <mxCell id="pAVdd1VswmtV60KGcweD-310" value="&lt;font style=&quot;font-size: 14px;&quot;&gt;Договор&lt;/font&gt;" style="text;strokeColor=none;fillColor=none;html=1;fontSize=24;fontStyle=1;verticalAlign=middle;align=center;rotation=0;" vertex="1" parent="1">
          <mxGeometry x="-130" y="-20" width="110" height="40" as="geometry" />
        </mxCell>
        <mxCell id="pAVdd1VswmtV60KGcweD-312" value="&lt;font style=&quot;font-size: 14px;&quot;&gt;Договор&lt;/font&gt;" style="text;strokeColor=none;fillColor=none;html=1;fontSize=24;fontStyle=1;verticalAlign=middle;align=center;rotation=0;" vertex="1" parent="1">
          <mxGeometry x="230" y="-120" width="110" height="40" as="geometry" />
        </mxCell>
        <mxCell id="pAVdd1VswmtV60KGcweD-313" value="" style="rounded=1;whiteSpace=wrap;html=1;fillColor=none;dashed=1;strokeWidth=2;" vertex="1" parent="1">
          <mxGeometry x="-330" y="-40" width="780" height="150" as="geometry" />
        </mxCell>
        <mxCell id="pAVdd1VswmtV60KGcweD-314" value="&lt;i&gt;Оказывают услуги в соответствие с Федеральным законом №103-ФЗ &quot;О деятельности по приему платежей физ. лиц, осуществляемой платежными агентами&quot;&lt;/i&gt;" style="text;strokeColor=none;fillColor=none;html=1;fontSize=14;fontStyle=0;verticalAlign=middle;align=left;whiteSpace=wrap;" vertex="1" parent="1">
          <mxGeometry x="-320" y="60" width="760" height="50" as="geometry" />
        </mxCell>
      </root>
    </mxGraphModel>
  </diagram>
</mxfile>
